<?xml version="1.0" encoding="utf-8"?>
<!-- Generator: Adobe Illustrator 21.0.0, SVG Export Plug-In . SVG Version: 6.00 Build 0)  -->
<svg version="1.1"
	 id="Warstwa_1" inkscape:version="0.92.4 (5da689c313, 2019-01-14)" sodipodi:docname="simpleMap.svg" xmlns:cc="http://creativecommons.org/ns#" xmlns:dc="http://purl.org/dc/elements/1.1/" xmlns:inkscape="http://www.inkscape.org/namespaces/inkscape" xmlns:rdf="http://www.w3.org/1999/02/22-rdf-syntax-ns#" xmlns:sodipodi="http://sodipodi.sourceforge.net/DTD/sodipodi-0.dtd" xmlns:svg="http://www.w3.org/2000/svg"
	 xmlns="http://www.w3.org/2000/svg" xmlns:xlink="http://www.w3.org/1999/xlink" x="0px" y="0px" viewBox="0 0 841.9 483.5"
	 style="enable-background:new 0 0 841.9 483.5;" xml:space="preserve">
<style type="text/css">
	.st0{fill:#808285;}
	.st1{fill:#FFFFFF;}
	.st2{fill:#476289;}
</style>
<g id="Obstacle" transform="translate(0,-50.5)">
	<rect id="rect27" y="50.5" class="st0" width="841.9" height="483.5"/>
</g>
<g id="Allowed" transform="translate(0,-50.5)">
	<path class="st1" d="M750.2,404.7h91.7V194.9H733.7V50.5h-28.2v214.6H589.3V50.5h-26.1v214.6h-92.6V50.5h-38.9v214.6h-92.6V50.5
		h-26.7V190H195.9V50.5h-34.6V175H0v103.6h27v126.6h134.9V534h620.2v-34.6h-31.9V404.7z M754.2,236.7h25.1v42.9h-25.1V236.7z
		 M754.2,319.4h25.1v42.9h-25.1V319.4z M13.4,263.8H5.1v-13h8.3V263.8z M13.4,234.9H5.1v-13h8.3V234.9z M13.4,205.2H5.1v-13h8.3
		V205.2z M215.8,217.6h96.4v47.5h-96.4V217.6z M78.3,303.7h-13v-8.3h13V303.7z M97.6,303.7h-13v-8.3h13V303.7z M144.1,390.2h-39.4
		v-4.6h16.7v-43.9h-16.7v-4.6h39.4V390.2z M144.1,270.1h-39.4v-4.6h16.7v-37.8h-16.7v-4.6h39.4V270.1z M164.2,261.6h-8.3v-13h8.3
		V261.6z M192.8,248.6h8.3v13h-8.3V248.6z M294.9,498.5h-98.1v-92.6h13.5v-79.4h84.6V498.5z M314.2,515.3c-1.9,0-3.4-1.5-3.4-3.4
		c0-1.9,1.5-3.4,3.4-3.4c1.9,0,3.4,1.5,3.4,3.4C317.6,513.8,316.1,515.3,314.2,515.3z M340.6,515.3c-1.9,0-3.4-1.5-3.4-3.4
		c0-1.9,1.5-3.4,3.4-3.4c1.9,0,3.4,1.5,3.4,3.4C344,513.8,342.5,515.3,340.6,515.3z M367.3,515.3c-1.9,0-3.4-1.5-3.4-3.4
		c0-1.9,1.5-3.4,3.4-3.4c1.9,0,3.4,1.5,3.4,3.4C370.7,513.8,369.2,515.3,367.3,515.3z M412.7,447.9H409v0.8
		c0,12.5-10.1,22.5-22.5,22.5S364,461.1,364,448.7v-0.8h-3.4V326.5h52.1V447.9z M435,515.3c-1.9,0-3.4-1.5-3.4-3.4
		c0-1.9,1.5-3.4,3.4-3.4s3.4,1.5,3.4,3.4C438.4,513.8,436.9,515.3,435,515.3z M461.4,515.3c-1.9,0-3.4-1.5-3.4-3.4
		c0-1.9,1.5-3.4,3.4-3.4c1.9,0,3.4,1.5,3.4,3.4C464.8,513.8,463.3,515.3,461.4,515.3z M488.1,515.3c-1.9,0-3.4-1.5-3.4-3.4
		c0-1.9,1.5-3.4,3.4-3.4c1.9,0,3.4,1.5,3.4,3.4C491.5,513.8,490,515.3,488.1,515.3z M543,447.9h-1.9v0.8c0,12.5-10.1,22.5-22.5,22.5
		c-12.4,0-22.5-10.1-22.5-22.5v-0.8h-5.2V326.5H543V447.9z M547,515.3c-1.9,0-3.4-1.5-3.4-3.4c0-1.9,1.5-3.4,3.4-3.4
		s3.4,1.5,3.4,3.4C550.3,513.8,548.8,515.3,547,515.3z M573.3,515.3c-1.9,0-3.4-1.5-3.4-3.4c0-1.9,1.5-3.4,3.4-3.4
		c1.9,0,3.4,1.5,3.4,3.4C576.7,513.8,575.2,515.3,573.3,515.3z M600,515.3c-1.9,0-3.4-1.5-3.4-3.4c0-1.9,1.5-3.4,3.4-3.4
		s3.4,1.5,3.4,3.4C603.4,513.8,601.9,515.3,600,515.3z M677.6,515.3c-1.9,0-3.4-1.5-3.4-3.4c0-1.9,1.5-3.4,3.4-3.4
		c1.9,0,3.4,1.5,3.4,3.4C680.9,513.8,679.4,515.3,677.6,515.3z M687.1,447.9h-3.4v0.8c0,12.5-10.1,22.5-22.5,22.5
		c-12.4,0-22.5-10.1-22.5-22.5v-0.8h-29.1V326.5h77.6L687.1,447.9z M703.9,515.3c-1.9,0-3.4-1.5-3.4-3.4c0-1.9,1.5-3.4,3.4-3.4
		c1.9,0,3.4,1.5,3.4,3.4C707.3,513.8,705.8,515.3,703.9,515.3z M730.6,515.3c-1.9,0-3.4-1.5-3.4-3.4c0-1.9,1.5-3.4,3.4-3.4
		c1.9,0,3.4,1.5,3.4,3.4C734,513.8,732.5,515.3,730.6,515.3z"/>
</g>
<g id="Targets">
	<circle class="st2" cx="326.2" cy="14.6" r="10.8"/>
	<circle class="st2" cx="720.4" cy="14.6" r="10.8"/>
	<circle class="st2" cx="823.7" cy="247.5" r="10.8"/>
	<circle class="st2" cx="29.6" cy="181.5" r="10.8"/>
	<circle class="st2" cx="107.4" cy="310.6" r="10.8"/>
	<circle class="st2" cx="450.2" cy="381.7" r="10.8"/>
</g>
</svg>
