<?xml version="1.0" encoding="utf-8"?>
<!-- Generator: Adobe Illustrator 21.0.0, SVG Export Plug-In . SVG Version: 6.00 Build 0)  -->
<svg version="1.1"
	 id="Warstwa_1" inkscape:version="0.92.4 (5da689c313, 2019-01-14)" sodipodi:docname="simpleMap.svg" xmlns:cc="http://creativecommons.org/ns#" xmlns:dc="http://purl.org/dc/elements/1.1/" xmlns:inkscape="http://www.inkscape.org/namespaces/inkscape" xmlns:rdf="http://www.w3.org/1999/02/22-rdf-syntax-ns#" xmlns:sodipodi="http://sodipodi.sourceforge.net/DTD/sodipodi-0.dtd" xmlns:svg="http://www.w3.org/2000/svg"
	 xmlns="http://www.w3.org/2000/svg" xmlns:xlink="http://www.w3.org/1999/xlink" x="0px" y="0px" viewBox="0 0 841.9 483.5"
	 style="enable-background:new 0 0 841.9 483.5;" xml:space="preserve">
<style type="text/css">
	.st0{fill:#808285;}
	.st1{fill:#FFFFFF;}
	.st2{fill:#476289;}
</style>
	<g id="Obstacle" transform="translate(0,-50.5)">
	<rect id="rect27" y="50.5" class="st0" width="841.9" height="483.5"/>
</g>
	<g id="Allowed" transform="translate(0,-50.5)">
	<path id="path30" inkscape:connector-curvature="0" class="st1" d="M733.7,194.9V50.5h-28.2v214.6H589.3V50.5h-26.1v214.6h-92.6
		V50.5h-38.9v214.6h-92.6V50.5h-26.7V190H195.9V50.5h-34.6V175H0v103.6h27v126.6h134.9V534h620.2v-34.6h-31.9v-94.7h91.7V194.9
		H733.7z M13.4,263.8H5.1v-13h8.3V263.8z M13.4,234.9H5.1v-13h8.3V234.9z M13.4,205.2H5.1v-13h8.3V205.2z M315,333.5v28.1h23.6
		v-28.1h4.6v32.7h-32.7v-32.7H315z M215.8,217.6h96.4v47.5h-96.4L215.8,217.6z M192.8,248.6h8.3v13h-8.3V248.6z M78.3,303.7h-13
		v-8.3h13V303.7z M97.6,303.7h-13v-8.3h13V303.7z M144.1,390.2h-39.4v-4.6h16.7v-43.9h-16.7v-4.6h39.4V390.2z M144.1,270.1h-39.4
		v-4.6h16.7v-37.8h-16.7v-4.6h39.4V270.1z M155.9,261.6v-13h8.3v13H155.9z M294.9,498.5h-98.1v-92.6h13.5v-79.4h84.6V498.5z
		 M314.2,515.3c-1.9,0-3.4-1.5-3.4-3.4s1.5-3.4,3.4-3.4s3.4,1.5,3.4,3.4S316.1,515.3,314.2,515.3z M330.2,468.4h-5.4v-17.2h-14.4
		v-32.7h4.6v28.1h23.6v-28.1h4.6v32.7h-12.9v17.2H330.2z M340.6,515.3c-1.9,0-3.4-1.5-3.4-3.4s1.5-3.4,3.4-3.4s3.4,1.5,3.4,3.4
		S342.5,515.3,340.6,515.3z M367.3,515.3c-1.9,0-3.4-1.5-3.4-3.4s1.5-3.4,3.4-3.4s3.4,1.5,3.4,3.4S369.2,515.3,367.3,515.3z
		 M412.7,447.9H409c0,0.2,0,0.5,0,0.8c0,12.5-10.1,22.5-22.5,22.5S364,461.1,364,448.7c0-0.2,0-0.5,0-0.8h-3.4V326.5h52.1
		L412.7,447.9z M435,515.3c-1.9,0-3.4-1.5-3.4-3.4s1.5-3.4,3.4-3.4s3.4,1.5,3.4,3.4S436.9,515.3,435,515.3z M461.4,515.3
		c-1.9,0-3.4-1.5-3.4-3.4s1.5-3.4,3.4-3.4s3.4,1.5,3.4,3.4S463.3,515.3,461.4,515.3z M466.7,451.7h-12.3v16.7H449v-16.7h-15V419h4.6
		v28.1h23.6V419h4.6v32.7L466.7,451.7z M466.7,366.2H434v-32.7h4.6v28.1h23.6v-28.1h4.6v32.7H466.7z M727.5,250.7h8.3v13h-8.3V250.7
		z M488.1,515.3c-1.9,0-3.4-1.5-3.4-3.4s1.5-3.4,3.4-3.4s3.4,1.5,3.4,3.4S490,515.3,488.1,515.3z M543,447.9h-1.9c0,0.2,0,0.5,0,0.8
		c0,12.5-10.1,22.5-22.5,22.5c-12.4,0-22.5-10.1-22.5-22.5c0-0.2,0-0.5,0-0.8h-5.2V326.5H543V447.9z M547,515.3
		c-1.9,0-3.4-1.5-3.4-3.4s1.5-3.4,3.4-3.4s3.4,1.5,3.4,3.4C550.3,513.8,548.8,515.3,547,515.3z M573.3,515.3c-1.9,0-3.4-1.5-3.4-3.4
		s1.5-3.4,3.4-3.4s3.4,1.5,3.4,3.4S575.2,515.3,573.3,515.3z M591.8,451.7h-12.9v16.7h-5.4v-16.7H559V419h4.6v28.1h23.6V419h4.6
		L591.8,451.7z M591.8,366.2H559v-32.7h4.6v28.1h23.6v-28.1h4.6L591.8,366.2z M600,515.3c-1.9,0-3.4-1.5-3.4-3.4s1.5-3.4,3.4-3.4
		s3.4,1.5,3.4,3.4S601.9,515.3,600,515.3z M677.6,515.3c-1.9,0-3.4-1.5-3.4-3.4s1.5-3.4,3.4-3.4s3.4,1.5,3.4,3.4
		C680.9,513.8,679.4,515.3,677.6,515.3z M687.1,447.9h-3.4c0,0.2,0,0.5,0,0.8c0,12.5-10.1,22.5-22.5,22.5s-22.5-10.1-22.5-22.5
		c0-0.2,0-0.5,0-0.8h-29.1V326.5h77.6L687.1,447.9z M703.9,515.3c-1.9,0-3.4-1.5-3.4-3.4s1.5-3.4,3.4-3.4s3.4,1.5,3.4,3.4
		S705.8,515.3,703.9,515.3z M730.6,515.3c-1.9,0-3.4-1.5-3.4-3.4s1.5-3.4,3.4-3.4s3.4,1.5,3.4,3.4S732.5,515.3,730.6,515.3z
		 M736.2,451.7h-12.9v16.7h-5.4v-16.7h-14.4V419h4.6v28.1h23.6V419h4.6L736.2,451.7z M736.2,366.2h-32.7v-32.7h4.6v28.1h23.6v-28.1
		h4.6L736.2,366.2z M779.3,362.3h-25.1v-42.9h25.1V362.3z M779.3,279.6h-25.1v-42.9h25.1V279.6z"/>
</g>
	<g id="Targets">
	<circle class="st2" cx="178.5" cy="14.6" r="10.8"/>
		<circle class="st2" cx="326.2" cy="14.6" r="10.8"/>
		<circle class="st2" cx="450.2" cy="14.6" r="10.8"/>
		<circle class="st2" cx="576.2" cy="14.6" r="10.8"/>
		<circle class="st2" cx="720.4" cy="14.6" r="10.8"/>
		<circle class="st2" cx="823.7" cy="247.5" r="10.8"/>
		<circle class="st2" cx="720.4" cy="294.9" r="10.8"/>
		<circle class="st2" cx="575.2" cy="294.9" r="10.8"/>
		<circle class="st2" cx="450.2" cy="294.9" r="10.8"/>
		<circle class="st2" cx="326.2" cy="294.9" r="10.8"/>
		<circle class="st2" cx="29.6" cy="181.5" r="10.8"/>
		<circle class="st2" cx="107.4" cy="192.3" r="10.8"/>
		<circle class="st2" cx="107.4" cy="310.6" r="10.8"/>
		<circle class="st2" cx="719.4" cy="381.7" r="10.8"/>
		<circle class="st2" cx="575.2" cy="381.7" r="10.8"/>
		<circle class="st2" cx="450.2" cy="381.7" r="10.8"/>
		<circle class="st2" cx="326.2" cy="381.7" r="10.8"/>
</g>
</svg>
