<?xml version="1.0" encoding="UTF-8" standalone="no"?>
<!-- Generator: Adobe Illustrator 21.0.0, SVG Export Plug-In . SVG Version: 6.00 Build 0)  -->

<svg
   xmlns:dc="http://purl.org/dc/elements/1.1/"
   xmlns:cc="http://creativecommons.org/ns#"
   xmlns:rdf="http://www.w3.org/1999/02/22-rdf-syntax-ns#"
   xmlns:svg="http://www.w3.org/2000/svg"
   xmlns="http://www.w3.org/2000/svg"
   xmlns:sodipodi="http://sodipodi.sourceforge.net/DTD/sodipodi-0.dtd"
   xmlns:inkscape="http://www.inkscape.org/namespaces/inkscape"
   version="1.1"
   id="Warstwa_1"
   x="0px"
   y="0px"
   viewBox="0 0 841.9 483.50001"
   xml:space="preserve"
   sodipodi:docname="map.svg"
   width="841.90002"
   height="483.5"
   inkscape:version="0.92.4 (5da689c313, 2019-01-14)"><metadata
   id="metadata38"><rdf:RDF><cc:Work
       rdf:about=""><dc:format>image/svg+xml</dc:format><dc:type
         rdf:resource="http://purl.org/dc/dcmitype/StillImage" /><dc:title></dc:title><dc:title></dc:title></cc:Work></rdf:RDF></metadata><defs
   id="defs36" /><sodipodi:namedview
   pagecolor="#ffffff"
   bordercolor="#666666"
   borderopacity="1"
   objecttolerance="10"
   gridtolerance="10"
   guidetolerance="10"
   inkscape:pageopacity="0"
   inkscape:pageshadow="2"
   inkscape:window-width="1366"
   inkscape:window-height="705"
   id="namedview34"
   showgrid="false"
   fit-margin-top="0"
   fit-margin-left="0"
   fit-margin-right="0"
   fit-margin-bottom="0"
   inkscape:zoom="0.63904495"
   inkscape:cx="167.66233"
   inkscape:cy="316.39968"
   inkscape:window-x="-8"
   inkscape:window-y="-8"
   inkscape:window-maximized="1"
   inkscape:current-layer="Warstwa_1" />
<style
   type="text/css"
   id="style25">
	.st0{fill:#808285;}
	.st1{fill:#FFFFFF;}
</style>
<g
   id="Obstacle"
   transform="translate(0,-50.5)">
	<rect
   y="50.5"
   class="st0"
   width="841.90002"
   height="483.5"
   id="rect27"
   x="0"
   style="fill:#808285" />
</g>
<g
   id="Allowed"
   transform="translate(0,-50.5)">
	<path
   class="st1"
   d="M 733.7,194.9 V 50.5 H 705.5 V 265.1 H 589.3 V 50.5 H 563.2 V 265.1 H 470.6 V 50.5 H 431.7 V 265.1 H 339.1 V 50.5 H 312.4 V 190 H 195.9 V 50.5 H 161.3 V 175 H 0 V 278.6 H 27 V 405.2 H 161.9 V 534 h 620.2 v -34.6 h -31.9 v -94.7 h 91.7 V 194.9 Z M 13.4,263.8 H 5.1 v -13 h 8.3 z m 0,-28.9 H 5.1 v -13 h 8.3 z m 0,-29.7 H 5.1 v -13 h 8.3 z M 315,333.5 v 28.1 h 23.6 v -28.1 h 4.6 v 32.7 H 310.5 V 333.5 Z M 215.8,217.6 h 96.4 v 47.5 h -96.4 z m -23,31 h 8.3 v 13 h -8.3 z M 78.3,303.7 h -13 v -8.3 h 13 z m 19.3,0 h -13 v -8.3 h 13 z m 46.5,86.5 h -39.4 v -4.6 h 16.7 v -43.9 h -16.7 v -4.6 h 39.4 z m 0,-120.1 h -39.4 v -4.6 h 16.7 v -37.8 h -16.7 v -4.6 h 39.4 z m 11.8,-8.5 v -13 h 8.3 v 13 z M 195,366.2 h -32.7 v -32.7 h 4.6 v 28.1 h 23.6 v -28.1 h 4.6 v 32.7 z m 99.9,132.3 h -98.1 v -92.6 h 13.5 v -79.4 h 84.6 z m 19.3,16.8 c -1.9,0 -3.4,-1.5 -3.4,-3.4 0,-1.9 1.5,-3.4 3.4,-3.4 1.9,0 3.4,1.5 3.4,3.4 0,1.9 -1.5,3.4 -3.4,3.4 z m 16,-46.9 h -5.4 v -17.2 h -14.4 v -32.7 h 4.6 v 28.1 h 23.6 v -28.1 h 4.6 v 32.7 h -12.9 v 17.2 z m 10.4,46.9 c -1.9,0 -3.4,-1.5 -3.4,-3.4 0,-1.9 1.5,-3.4 3.4,-3.4 1.9,0 3.4,1.5 3.4,3.4 0,1.9 -1.5,3.4 -3.4,3.4 z m 26.7,0 c -1.9,0 -3.4,-1.5 -3.4,-3.4 0,-1.9 1.5,-3.4 3.4,-3.4 1.9,0 3.4,1.5 3.4,3.4 0,1.9 -1.5,3.4 -3.4,3.4 z m 45.4,-67.4 H 409 c 0,0.2 0,0.5 0,0.8 0,12.5 -10.1,22.5 -22.5,22.5 -12.4,0 -22.5,-10.1 -22.5,-22.5 0,-0.2 0,-0.5 0,-0.8 h -3.4 V 326.5 h 52.1 z m 22.3,67.4 c -1.9,0 -3.4,-1.5 -3.4,-3.4 0,-1.9 1.5,-3.4 3.4,-3.4 1.9,0 3.4,1.5 3.4,3.4 0,1.9 -1.5,3.4 -3.4,3.4 z m 26.4,0 c -1.9,0 -3.4,-1.5 -3.4,-3.4 0,-1.9 1.5,-3.4 3.4,-3.4 1.9,0 3.4,1.5 3.4,3.4 0,1.9 -1.5,3.4 -3.4,3.4 z m 5.3,-63.6 h -12.3 v 16.7 H 449 V 451.7 H 434 V 419 h 4.6 v 28.1 h 23.6 V 419 h 4.6 v 32.7 z m 0,-85.5 H 434 v -32.7 h 4.6 v 28.1 h 23.6 v -28.1 h 4.6 v 32.7 z M 727.5,250.7 h 8.3 v 13 h -8.3 z M 488.1,515.3 c -1.9,0 -3.4,-1.5 -3.4,-3.4 0,-1.9 1.5,-3.4 3.4,-3.4 1.9,0 3.4,1.5 3.4,3.4 0,1.9 -1.5,3.4 -3.4,3.4 z M 543,447.9 h -1.9 c 0,0.2 0,0.5 0,0.8 0,12.5 -10.1,22.5 -22.5,22.5 -12.4,0 -22.5,-10.1 -22.5,-22.5 0,-0.2 0,-0.5 0,-0.8 h -5.2 V 326.5 H 543 Z m 4,67.4 c -1.9,0 -3.4,-1.5 -3.4,-3.4 0,-1.9 1.5,-3.4 3.4,-3.4 1.9,0 3.4,1.5 3.4,3.4 -0.1,1.9 -1.6,3.4 -3.4,3.4 z m 26.3,0 c -1.9,0 -3.4,-1.5 -3.4,-3.4 0,-1.9 1.5,-3.4 3.4,-3.4 1.9,0 3.4,1.5 3.4,3.4 0,1.9 -1.5,3.4 -3.4,3.4 z m 18.5,-63.6 h -12.9 v 16.7 h -5.4 V 451.7 H 559 V 419 h 4.6 v 28.1 h 23.6 V 419 h 4.6 z m 0,-85.5 H 559 v -32.7 h 4.6 v 28.1 h 23.6 v -28.1 h 4.6 z m 8.2,149.1 c -1.9,0 -3.4,-1.5 -3.4,-3.4 0,-1.9 1.5,-3.4 3.4,-3.4 1.9,0 3.4,1.5 3.4,3.4 0,1.9 -1.5,3.4 -3.4,3.4 z m 77.6,0 c -1.9,0 -3.4,-1.5 -3.4,-3.4 0,-1.9 1.5,-3.4 3.4,-3.4 1.9,0 3.4,1.5 3.4,3.4 -0.1,1.9 -1.6,3.4 -3.4,3.4 z m 9.5,-67.4 h -3.4 c 0,0.2 0,0.5 0,0.8 0,12.5 -10.1,22.5 -22.5,22.5 -12.4,0 -22.5,-10.1 -22.5,-22.5 0,-0.2 0,-0.5 0,-0.8 H 609.6 V 326.5 h 77.6 z m 16.8,67.4 c -1.9,0 -3.4,-1.5 -3.4,-3.4 0,-1.9 1.5,-3.4 3.4,-3.4 1.9,0 3.4,1.5 3.4,3.4 0,1.9 -1.5,3.4 -3.4,3.4 z m 26.7,0 c -1.9,0 -3.4,-1.5 -3.4,-3.4 0,-1.9 1.5,-3.4 3.4,-3.4 1.9,0 3.4,1.5 3.4,3.4 0,1.9 -1.5,3.4 -3.4,3.4 z m 5.6,-63.6 h -12.9 v 16.7 h -5.4 V 451.7 H 703.5 V 419 h 4.6 v 28.1 h 23.6 V 419 h 4.6 z m 0,-85.5 h -32.7 v -32.7 h 4.6 v 28.1 h 23.6 v -28.1 h 4.6 z m 43.1,-3.9 h -25.1 v -42.9 h 25.1 z m 0,-82.7 h -25.1 v -42.9 h 25.1 z"
   id="path30"
   inkscape:connector-curvature="0"
   style="fill:#ffffff" />
</g>
</svg>